<?xml version="1.0" encoding="iso-8859-1"?>
<!-- Generator: Adobe Illustrator 18.0.0, SVG Export Plug-In . SVG Version: 6.00 Build 0)  -->
<!DOCTYPE svg PUBLIC "-//W3C//DTD SVG 1.1//EN" "http://www.w3.org/Graphics/SVG/1.1/DTD/svg11.dtd">
<svg version="1.1" id="Capa_1" xmlns="http://www.w3.org/2000/svg" xmlns:xlink="http://www.w3.org/1999/xlink" x="0px" y="0px"
	 viewBox="0 0 456.093 456.093" style="enable-background:new 0 0 456.093 456.093;" xml:space="preserve">
<g>
	<path d="M276.774,229.322c-4.924,9.552-3.727,21.58,3.777,29.638c3.001,3.223,6.787,5.637,10.948,6.981
		c5.066,1.637,9.068,5.639,10.705,10.705c1.345,4.16,3.759,7.946,6.981,10.947c4.838,4.506,11.107,6.74,17.414,6.74
		c6.787,0,13.617-2.588,18.745-7.716l73.095-73.094c9.893-9.893,10.332-26.114,0.977-36.158c-3.001-3.223-6.787-5.637-10.948-6.982
		c-5.066-1.637-9.068-5.639-10.705-10.705c-1.345-4.16-3.759-7.946-6.981-10.947c-8.057-7.504-20.085-8.7-29.637-3.777
		L281.201,65.01c4.924-9.552,3.727-21.58-3.777-29.637c-3.001-3.222-6.787-5.637-10.947-6.981
		c-5.066-1.637-9.068-5.639-10.705-10.705c-1.345-4.16-3.759-7.946-6.981-10.947c-10.044-9.355-26.265-8.917-36.159,0.977
		L139.537,80.81c-9.893,9.893-10.332,26.114-0.977,36.158c3.002,3.223,6.788,5.638,10.948,6.982
		c5.066,1.637,9.068,5.64,10.706,10.705c1.344,4.161,3.759,7.946,6.982,10.948c4.837,4.505,11.108,6.739,17.414,6.739
		c4.197,0,8.409-0.992,12.226-2.96l22.486,22.487L10.673,380.518c-10.722,10.722-10.722,28.168,0,38.891
		c5.361,5.361,12.403,8.042,19.446,8.042c7.042,0,14.084-2.68,19.445-8.042L258.212,210.76L276.774,229.322z M409.902,186.224
		L409.902,186.224c4.64,4.982,4.346,13.105-0.656,18.106l-73.095,73.094c-5.001,5.001-13.124,5.296-18.106,0.656
		c-1.629-1.518-2.797-3.345-3.472-5.432c-0.772-2.389-1.846-4.64-3.166-6.72l86.342-86.342c2.08,1.319,4.331,2.393,6.719,3.165
		C406.557,183.427,408.385,184.595,409.902,186.224z M381.92,158.242c1.629,1.518,2.797,3.345,3.472,5.432
		c0.772,2.389,1.846,4.64,3.165,6.72l-86.342,86.342c-2.08-1.319-4.331-2.393-6.719-3.165c-2.088-0.675-3.916-1.843-5.433-3.471
		c-4.639-4.981-4.346-13.1,0.651-18.102l36.552-36.552l36.547-36.547c2.624-2.624,6.107-3.953,9.545-3.953
		C376.474,154.946,379.552,156.037,381.92,158.242z M148.073,108.109c-4.64-4.982-4.346-13.104,0.656-18.106l73.094-73.094
		c2.625-2.625,6.107-3.953,9.545-3.953c3.115,0,6.193,1.091,8.562,3.296c1.629,1.518,2.797,3.345,3.472,5.433
		c0.772,2.389,1.846,4.639,3.165,6.719l-86.342,86.342c-2.08-1.319-4.331-2.394-6.72-3.166
		C151.418,110.906,149.591,109.738,148.073,108.109z M176.054,136.09c-1.629-1.517-2.797-3.344-3.471-5.432
		c-0.772-2.389-1.847-4.639-3.166-6.719l86.342-86.342c2.08,1.319,4.331,2.393,6.719,3.165c2.088,0.675,3.916,1.843,5.432,3.471l0,0
		c4.64,4.982,4.346,13.104-0.656,18.106l-73.094,73.094C189.159,140.436,181.036,140.73,176.054,136.09z M272.893,75.087
		l78.174,78.174l-32.992,32.992l-32.992,32.992l-78.174-78.174L272.893,75.087z M40.372,410.216c-5.654,5.653-14.853,5.654-20.506,0
		c-5.653-5.654-5.653-14.853,0-20.506l208.648-208.648l20.506,20.506L40.372,410.216z"/>
	<path d="M453.449,421.896c0-1.402-0.441-2.795-1.326-3.951l-26.448-34.555v-15.798c0-3.59-2.91-6.5-6.5-6.5h-182
		c-3.59,0-6.5,2.91-6.5,6.5v15.798l-26.448,34.555c-0.885,1.156-1.326,2.549-1.326,3.951l-0.013,27.697c0,3.59,2.91,6.5,6.5,6.5
		h237.572c3.59,0,6.5-2.91,6.5-6.5L453.449,421.896z M243.675,374.093h169v5h-169V374.093z M240.385,392.093h175.579l17.836,23.303
		H222.55L240.385,392.093z M215.889,443.093v-14.697h224.572v14.697H215.889z"/>
	<path d="M323.006,156.616c1.269,1.269,2.933,1.904,4.596,1.904s3.327-0.635,4.596-1.904c2.539-2.539,2.539-6.654,0-9.192
		L278.73,93.956c-2.538-2.538-6.654-2.538-9.192,0c-2.539,2.539-2.539,6.654,0,9.192L323.006,156.616z"/>
</g>
<g>
</g>
<g>
</g>
<g>
</g>
<g>
</g>
<g>
</g>
<g>
</g>
<g>
</g>
<g>
</g>
<g>
</g>
<g>
</g>
<g>
</g>
<g>
</g>
<g>
</g>
<g>
</g>
<g>
</g>
</svg>
