<?xml version="1.0" encoding="iso-8859-1"?>
<svg version="1.1" id="Layer_1" xmlns="http://www.w3.org/2000/svg" xmlns:xlink="http://www.w3.org/1999/xlink" x="0px" y="0px"
	 viewBox="0 0 512 512" style="enable-background:new 0 0 512 512;" xml:space="preserve">
<g>
	<g>
		<path d="M87.605,389.526c-0.153-0.754-0.377-1.497-0.671-2.202c-0.294-0.718-0.659-1.401-1.083-2.037
			c-0.424-0.648-0.918-1.248-1.46-1.79c-2.732-2.732-6.806-3.992-10.634-3.215c-0.754,0.153-1.496,0.377-2.202,0.671
			s-1.39,0.659-2.037,1.083c-0.636,0.424-1.248,0.919-1.79,1.46s-1.025,1.142-1.46,1.79c-0.424,0.636-0.789,1.319-1.083,2.037
			c-0.294,0.707-0.518,1.448-0.671,2.202c-0.153,0.754-0.224,1.531-0.224,2.296c0,0.766,0.071,1.543,0.224,2.296
			s0.377,1.495,0.671,2.214c0.294,0.707,0.659,1.39,1.083,2.025c0.436,0.648,0.919,1.248,1.46,1.79s1.154,1.036,1.79,1.46
			c0.648,0.436,1.331,0.789,2.037,1.083s1.448,0.53,2.202,0.671c0.765,0.153,1.531,0.236,2.308,0.236c3.097,0,6.135-1.26,8.326-3.45
			c0.542-0.542,1.036-1.142,1.46-1.79c0.424-0.636,0.789-1.319,1.083-2.025c0.294-0.718,0.518-1.46,0.671-2.214
			c0.153-0.754,0.235-1.531,0.235-2.296S87.758,390.28,87.605,389.526z"/>
	</g>
</g>
<g>
	<g>
		<path d="M488.053,426.556h-59.141l16.366-10.047c0.91-0.559,1.708-1.231,2.406-1.972c20.168-14.761,34.169-33.235,40.517-53.572
			c7.19-23.036,3.961-46.661-9.338-68.325c-27.966-45.551-79.197-54.627-130.523-23.118c-0.078,0.048-0.155,0.098-0.232,0.147
			l-87.098,56.322c-1.468-0.851-3.012-1.605-4.629-2.244l-65.115-25.712l-50.462-94.114c-1.03-1.922-2.223-3.715-3.537-5.391
			c28.455-7.024,49.623-32.755,49.623-63.35V97.324c0.703-1.669,1.034-3.488,0.915-5.332C184.236,36.969,148.762,0,99.529,0
			C46.461,0,12.17,38.629,12.17,98.412v134.322c0,4.673,2.728,8.698,6.673,10.601v151.668c0,0.1,0.013,0.197,0.015,0.296v43.033
			v61.892c0,6.504,5.272,11.776,11.776,11.776h457.42c6.503,0,11.776-5.272,11.776-11.776v-61.892
			C499.829,431.828,494.557,426.556,488.053,426.556z M360.776,289.524c15.255-9.338,66.807-35.389,98.014,15.438
			c20.211,32.919,5.983,63.506-16.699,83.851l-37.705-61.415c-0.204-0.333-0.424-0.654-0.658-0.962
			c-1.638-2.157-3.98-3.694-6.638-4.33c-3.037-0.728-6.239-0.218-8.901,1.418l-36.458,22.382c-0.903,0.555-1.783,1.105-2.644,1.651
			c-0.363,0.23-0.71,0.457-1.067,0.687c-0.482,0.31-0.967,0.621-1.435,0.928c-0.442,0.29-0.868,0.576-1.298,0.863
			c-0.358,0.239-0.719,0.479-1.069,0.717c-0.48,0.326-0.948,0.65-1.415,0.974c-0.272,0.19-0.546,0.379-0.815,0.568
			c-0.511,0.359-1.01,0.717-1.504,1.074c-0.198,0.143-0.396,0.286-0.59,0.429c-0.536,0.391-1.061,0.781-1.576,1.169
			c-0.128,0.097-0.257,0.194-0.384,0.291c-0.562,0.426-1.113,0.851-1.65,1.275c-0.052,0.041-0.104,0.082-0.155,0.122
			c-15.058,11.895-20.855,22.595-23.509,35.363l-15.771-21.077l-19.708-26.34c-0.001-0.002-0.004-0.003-0.005-0.006l-0.493-0.661
			L360.776,289.524z M422.919,402.6l-26.422,16.221c-19.803,12.16-45.812,5.937-57.971-13.866c-1.228-2-2.288-4.118-3.174-6.322
			c0.894-4.988,2.356-9.296,5.466-13.648c3.951-5.313,10.829-11.391,23.235-19.007l26.422-16.222L422.919,402.6z M172.551,312.968
			c1.313,2.454,3.457,4.364,6.049,5.387l69.13,27.297c1.633,0.645,3.036,1.647,4.16,2.879c0.171,0.185,0.327,0.378,0.484,0.572
			c0.091,0.113,0.186,0.224,0.272,0.34c0.092,0.122,0.172,0.252,0.258,0.378c0.492,0.724,0.907,1.499,1.224,2.316
			c0.014,0.038,0.032,0.073,0.046,0.111c0.206,0.549,0.363,1.116,0.483,1.693c0.18,0.873,0.259,1.742,0.238,2.604
			c-0.004,0.128-0.013,0.258-0.02,0.386c-0.018,0.307-0.049,0.612-0.093,0.917c-0.019,0.133-0.035,0.265-0.059,0.398
			c-0.031,0.17-0.079,0.337-0.118,0.506c-0.058,0.248-0.1,0.499-0.174,0.745c-0.776,2.571-2.393,4.734-4.604,6.189
			c-0.316,0.208-0.644,0.402-0.983,0.581c-2.378,1.249-5.053,1.613-7.642,1.057c-0.37-0.08-0.738-0.178-1.103-0.294l-4.052-1.298
			l-62.652-20.066c-0.833-0.287-1.653-0.605-2.467-0.941c-0.188-0.078-0.374-0.159-0.562-0.239c-0.708-0.303-1.41-0.621-2.1-0.959
			c-0.094-0.046-0.19-0.089-0.284-0.137c-5.13-2.555-9.762-6.072-13.605-10.362c-0.048-0.053-0.102-0.099-0.151-0.152
			c-2.327-2.627-4.362-5.537-6.052-8.691l-42.72-79.678h25.794c0.001,0,0.001,0,0.001,0c0.337,0,0.67-0.018,1.001-0.046
			c0.107-0.009,0.212-0.025,0.318-0.036c0.225-0.026,0.449-0.055,0.67-0.093c0.121-0.021,0.24-0.045,0.36-0.07
			c0.208-0.042,0.414-0.091,0.619-0.144c0.117-0.031,0.232-0.06,0.347-0.094c0.221-0.065,0.438-0.139,0.655-0.216
			c0.071-0.026,0.144-0.044,0.214-0.071L172.551,312.968z M112.694,403.598h118.138l10.398,22.958H42.409v-73.893h98.213
			c3.58,3.413,7.522,6.427,11.765,9c0.026,0.015,0.053,0.032,0.079,0.047c0.968,0.585,1.95,1.146,2.949,1.685
			c0.146,0.079,0.292,0.159,0.439,0.237c0.876,0.464,1.763,0.909,2.66,1.335c0.231,0.109,0.459,0.224,0.69,0.331
			c0.838,0.387,1.687,0.755,2.545,1.109c0.265,0.111,0.528,0.228,0.794,0.336c1.052,0.422,2.116,0.82,3.192,1.191
			c0.045,0.015,0.087,0.034,0.132,0.049c0.074,0.025,0.147,0.049,0.221,0.073l37.435,11.99h-90.83
			c-6.504,0-11.776,5.272-11.776,11.776C100.918,398.326,106.19,403.598,112.694,403.598z M163.336,135.18
			c0.001,22.995-18.707,41.703-41.702,41.703c-1.447,0-2.894-0.077-4.336-0.23c-0.044-0.244-0.087-0.484-0.131-0.73
			c-0.179-1.036-0.351-2.087-0.515-3.149c-0.06-0.391-0.122-0.78-0.18-1.176c-0.19-1.284-0.367-2.587-0.535-3.907
			c-0.027-0.21-0.055-0.414-0.081-0.625c-0.192-1.554-0.37-3.131-0.531-4.735c-0.004-0.037-0.007-0.075-0.011-0.112
			c-0.165-1.647-0.313-3.32-0.446-5.019c-0.001-0.014-0.002-0.028-0.003-0.041c-0.134-1.719-0.251-3.464-0.352-5.236
			c0-0.007,0-0.014-0.001-0.021c-0.101-1.776-0.185-3.576-0.252-5.403c0-0.011-0.001-0.022-0.001-0.033
			c-0.067-1.824-0.118-3.674-0.151-5.548c0-0.011,0-0.022,0-0.034c-0.034-1.877-0.051-3.779-0.051-5.705V104.53h49.278V135.18z
			 M35.721,98.412c0-17.561,4.602-74.861,63.808-74.861c38.782,0,57.599,28.679,63.161,57.426h-60.406
			c-3.252,0-6.196,1.318-8.327,3.449c-2.131,2.131-3.449,5.075-3.449,8.327v42.426c0,43.244,7.668,69.214,16.864,85.778H85.808
			H35.721V98.412z M42.393,244.51h36.333l45.361,84.602H42.393V244.51z M42.409,488.447v-38.34h209.486l3.891,8.592
			c5.888,12.999,17.817,22.287,33.588,26.15c0.207,0.051,0.414,0.095,0.622,0.134l18.381,3.463H42.409z M397.228,478.489
			c-1.005,0.833-3.131,2.146-6.116,1.581l-96.42-18.167c-7.395-1.871-13.059-5.612-16.241-10.671
			c-0.455-0.723-0.858-1.473-1.209-2.248l-7.024-15.51c0,0,0-0.001-0.001-0.001l-19.507-43.072c0.106-0.022,0.21-0.055,0.316-0.078
			c0.259-0.057,0.517-0.111,0.775-0.173c0.145-0.035,0.289-0.079,0.433-0.115c0.167-0.044,0.334-0.088,0.502-0.134
			c0.138-0.038,0.277-0.071,0.415-0.111c0.175-0.051,0.35-0.105,0.525-0.159c0.208-0.064,0.417-0.133,0.624-0.2
			c0.301-0.098,0.603-0.195,0.903-0.303c0.131-0.046,0.259-0.098,0.389-0.145c0.201-0.074,0.403-0.151,0.603-0.228
			c0.359-0.14,0.717-0.29,1.074-0.443c0.15-0.065,0.301-0.124,0.45-0.191c0.101-0.045,0.201-0.091,0.303-0.137
			c0.598-0.273,1.192-0.559,1.778-0.868c0.565-0.297,1.118-0.61,1.662-0.934c0.183-0.108,0.359-0.225,0.539-0.337
			c0.358-0.223,0.715-0.446,1.063-0.679c0.205-0.138,0.406-0.28,0.608-0.423c0.316-0.221,0.628-0.445,0.935-0.676
			c0.205-0.154,0.406-0.31,0.608-0.468c0.298-0.234,0.59-0.473,0.88-0.717c0.192-0.161,0.383-0.321,0.571-0.487
			c0.298-0.261,0.588-0.53,0.875-0.801c0.166-0.157,0.334-0.31,0.497-0.469c0.34-0.333,0.67-0.676,0.996-1.023
			c0.098-0.105,0.201-0.205,0.298-0.311c0.419-0.458,0.826-0.927,1.22-1.406c0.095-0.117,0.185-0.239,0.279-0.357
			c0.294-0.367,0.584-0.74,0.863-1.119c0.035-0.048,0.074-0.094,0.109-0.143l5.423,7.248l24.908,54.999
			c1.504,3.322,4.463,5.76,8.011,6.6l84.059,19.926c3.364,0.797,5.715,3.769,5.715,7.228
			C399.914,475.807,398.231,477.656,397.228,478.489z M476.279,488.448L476.279,488.448h-57.063
			c0.072-0.121,0.132-0.248,0.201-0.371c0.207-0.364,0.407-0.73,0.599-1.101c0.106-0.204,0.21-0.409,0.31-0.615
			c0.186-0.38,0.362-0.764,0.531-1.153c0.085-0.193,0.173-0.385,0.253-0.579c0.204-0.492,0.393-0.992,0.572-1.494
			c0.032-0.089,0.068-0.178,0.1-0.267c0.204-0.594,0.387-1.195,0.556-1.802c0.049-0.178,0.089-0.359,0.135-0.538
			c0.112-0.435,0.218-0.87,0.311-1.311c0.047-0.224,0.089-0.449,0.132-0.675c0.077-0.407,0.146-0.817,0.206-1.229
			c0.034-0.231,0.067-0.46,0.097-0.692c0.054-0.436,0.097-0.874,0.132-1.313c0.016-0.203,0.038-0.404,0.051-0.608
			c0.04-0.641,0.065-1.282,0.065-1.929c0-0.808-0.041-1.607-0.101-2.401c-0.012-0.16-0.024-0.32-0.038-0.48
			c-0.071-0.767-0.166-1.525-0.291-2.275c-0.022-0.137-0.051-0.271-0.075-0.407c-0.127-0.708-0.276-1.408-0.451-2.1
			c-0.021-0.085-0.039-0.172-0.061-0.257c-0.193-0.736-0.417-1.459-0.662-2.173c-0.053-0.153-0.106-0.305-0.16-0.457
			c-0.254-0.708-0.529-1.406-0.833-2.09c-0.038-0.086-0.08-0.168-0.119-0.254c-0.29-0.637-0.603-1.261-0.935-1.875
			c-0.061-0.113-0.12-0.228-0.182-0.342c-0.36-0.646-0.744-1.276-1.148-1.894c-0.085-0.128-0.172-0.255-0.258-0.383
			c-0.425-0.628-0.864-1.244-1.334-1.838c-0.008-0.011-0.018-0.021-0.026-0.032c-0.465-0.586-0.957-1.151-1.464-1.702
			c-0.101-0.111-0.203-0.223-0.306-0.332c-0.444-0.47-0.897-0.93-1.371-1.371h62.627V488.448z"/>
	</g>
</g>
</svg>
