<?xml version="1.0" encoding="iso-8859-1"?>
<!-- Generator: Adobe Illustrator 19.0.0, SVG Export Plug-In . SVG Version: 6.00 Build 0)  -->
<svg version="1.1" id="Layer_1" xmlns="http://www.w3.org/2000/svg" xmlns:xlink="http://www.w3.org/1999/xlink" x="0px" y="0px"
	 viewBox="0 0 512 512" style="enable-background:new 0 0 512 512;" xml:space="preserve">
<g>
	<g>
		<path d="M300.522,22.261c-36.824,0-66.783,29.959-66.783,66.783c0,36.824,29.959,66.783,66.783,66.783
			s66.783-29.959,66.783-66.783C367.304,52.22,337.346,22.261,300.522,22.261z M300.522,122.435
			c-18.412,0-33.391-14.979-33.391-33.391c0-18.412,14.979-33.391,33.391-33.391c18.412,0,33.391,14.979,33.391,33.391
			C333.913,107.455,318.934,122.435,300.522,122.435z"/>
	</g>
</g>
<g>
	<g>
		<path d="M512,372.87c0-26.722-21.035-48.621-47.417-50.015c4.525-12.652,3.395-23.407-0.528-35.176
			c31.39-10.463,42.42-39.713,34.244-64.225c-8.78-26.346-37.141-40.469-63.361-31.669l-5.176,1.725
			c-15.209-23.293-41.2-37.684-69.781-37.684h-59.46h-50.113c-0.008,0-0.017,0-0.024,0c-46.007,0.027-83.428,37.465-83.428,83.478
			v33.391c0,18.778,6.236,36.125,16.741,50.087h-0.046c-27.618,0-50.087,22.469-50.087,50.087c0,5.852,1.018,11.47,2.872,16.696
			h-11.856c5.702-9.831,8.984-21.231,8.984-33.391c0-36.824-29.959-66.783-66.783-66.783C29.959,289.391,0,319.35,0,356.174
			c0,17.457,6.741,33.365,17.746,45.275C6.902,410.644,0,424.353,0,439.652c0,27.618,22.469,50.087,50.087,50.087h411.826
			c27.618,0,50.087-22.469,50.087-50.087c0-12.819-4.846-24.523-12.794-33.391C507.155,397.392,512,385.688,512,372.87z
			 M445.532,223.452c8.787-2.951,18.173,1.803,21.09,10.562c0,0.003,0.001,0.006,0.002,0.009
			c2.921,8.751-1.804,18.202-10.556,21.121c-13.001,4.334-68.571,22.857-77.348,25.784c-6.817,2.273-11.415,8.653-11.415,15.839
			c0,14.289,0,19.662,0,26.016h-33.391v-46.404c0.604-2.688-0.836-15.438,11.41-19.523L445.532,223.452z M422.655,321.934
			c-8.484,2.841-18.115-1.593-21.103-10.563l-0.856-2.566v-0.006l31.682-10.561l0.856,2.567
			C436.147,309.538,431.409,319.014,422.655,321.934z M200.348,239.304c0-27.618,22.469-50.087,50.087-50.087h109.547
			c14,0,26.965,5.759,36.215,15.482l-61.437,20.479c-16.043,5.353-27.911,18.479-32.138,34.494
			c-5.808-2.361-12.15-3.673-18.796-3.673h-16.802v-16.696c0-9.22-7.364-16.696-16.584-16.696c-9.22,0-16.696,7.475-16.696,16.696
			v33.306c0,0.029-0.004,0.057-0.004,0.086c0,9.22,7.475,16.696,16.696,16.696h33.391c9.206,0,16.696,7.49,16.696,16.696
			c0,9.206-7.49,16.696-16.696,16.696h-33.391c-27.618,0-50.087-22.469-50.087-50.087V239.304z M66.783,322.783
			c18.412,0,33.391,14.979,33.391,33.391c0,18.412-14.979,33.391-33.391,33.391c-18.412,0-33.391-14.979-33.391-33.391
			C33.391,337.762,48.371,322.783,66.783,322.783z M461.913,456.348H50.087c-9.206,0-16.696-7.49-16.696-16.696
			s7.49-16.696,16.696-16.696c16.018,0,395.329,0,411.826,0c9.206,0,16.696,7.49,16.696,16.696S471.119,456.348,461.913,456.348z
			 M461.913,389.565H183.652c-9.206,0-16.696-7.49-16.696-16.696s7.49-16.696,16.696-16.696c10.033,0,265.926,0,278.261,0
			c9.206,0,16.696,7.49,16.696,16.696S471.119,389.565,461.913,389.565z"/>
	</g>
</g>
<g>
</g>
<g>
</g>
<g>
</g>
<g>
</g>
<g>
</g>
<g>
</g>
<g>
</g>
<g>
</g>
<g>
</g>
<g>
</g>
<g>
</g>
<g>
</g>
<g>
</g>
<g>
</g>
<g>
</g>
</svg>
