<?xml version="1.0" encoding="UTF-8"?>
<svg xmlns="http://www.w3.org/2000/svg" id="Layer_3" data-name="Layer 3" viewBox="0 0 64 64" width="512" height="512"><path d="M62.707,40.292A1,1,0,0,0,62,40H60.414a4.367,4.367,0,0,0-2.765,1H44V37h.184A3,3,0,0,0,47,39h1a3,3,0,0,0,2.816-2H56a1,1,0,0,0,1-1V28a1,1,0,0,0-1-1H54a2.973,2.973,0,0,0-2,.779V25.823a7.5,7.5,0,0,0-3.856-6.554L43.249,16.55A6.985,6.985,0,0,0,46,11V6a3.006,3.006,0,0,0-2.127-2.871A3,3,0,0,0,41.006,1H35.95A3.955,3.955,0,0,0,32,4.95V11a6.985,6.985,0,0,0,2.751,5.55l-4.895,2.719A7.5,7.5,0,0,0,26,25.823V31a3,3,0,0,0,3,3h2v3H21a6.007,6.007,0,0,0-5.5,3.609A6.007,6.007,0,0,0,10,37H8A5.99,5.99,0,0,0,3.54,47H2a1,1,0,0,0-1,1v4a1,1,0,0,0,1,1H7v9a1,1,0,0,0,1,1h3A1,1,0,0,0,12,62.1l.91-9.1H31v3.432a4.588,4.588,0,0,0-2,3.8V61a1,1,0,0,0,1,1H48a1,1,0,0,0,1-1v-.764a4.588,4.588,0,0,0-2-3.8V53H51.1l.91,9.1A1,1,0,0,0,53,63h3a1,1,0,0,0,1-1V53h5a1,1,0,0,0,1-1V41A1,1,0,0,0,62.707,40.292ZM60.415,42H61v5H59V42.468A2.424,2.424,0,0,1,60.415,42ZM48,37H47a1,1,0,0,1,0-2h1a1,1,0,0,1,0,2Zm3-2h-.185A2.994,2.994,0,0,0,48,33H47a3,3,0,0,0-2.816,2H43a1,1,0,0,0-1,1v6a1,1,0,0,0,1,1H57v4H42.649A3.464,3.464,0,0,0,43,45.5,3.5,3.5,0,0,0,39.5,42H38V33.649A3.492,3.492,0,0,0,39.949,31H51ZM36.5,29a1.5,1.5,0,0,1,0,3H36V29Zm3,15a1.5,1.5,0,0,1,0,3H39V44ZM53.293,29.293A.993.993,0,0,1,54,29h1v6H53V30A.991.991,0,0,1,53.293,29.293ZM36,3h5.006A1,1,0,0,1,42,4a1,1,0,0,0,1,1,1,1,0,0,1,1,1V8.837a3.155,3.155,0,0,1-2-2l-.051-.153a1,1,0,0,0-1.781-.239A5.724,5.724,0,0,1,35.4,9H34V4.95A1.964,1.964,0,0,1,36,3Zm-2,8h1.4a7.721,7.721,0,0,0,5.388-2.183A5.152,5.152,0,0,0,44,10.9V11a5,5,0,0,1-10,0Zm6.853,6.743a1.994,1.994,0,0,1-3.706,0,6.809,6.809,0,0,0,3.706,0ZM28,31V25.823a5.5,5.5,0,0,1,2.828-4.806l4.479-2.488a4,4,0,0,0,7.386,0l4.479,2.488A5.5,5.5,0,0,1,50,25.823V29H47V24H45v5H39.649A3.5,3.5,0,0,0,36.5,27H33V24H31v3H30v2h4v3H29A1,1,0,0,1,28,31Zm5,3h3v3H33ZM21,39H36v3H21v2H37v3H21a4,4,0,0,1,0-8Zm-4.46,8H14.46a6.027,6.027,0,0,0,1.04-1.609A6.027,6.027,0,0,0,16.54,47ZM10,39a4,4,0,0,1,4,4,3.947,3.947,0,0,1-.567,2.019l-2.726-2.726A1,1,0,0,0,10,42H8V39ZM4,43a3.987,3.987,0,0,1,2-3.444V43a1,1,0,0,0,1,1H9.586l2.433,2.433A3.947,3.947,0,0,1,10,47H8A4,4,0,0,1,4,43Zm6.1,18H9V53H10.9ZM38,53v3H33V53Zm-5.71,5H38v2H31.01A2.589,2.589,0,0,1,32.29,58ZM40,60V58h5.71a2.589,2.589,0,0,1,1.28,2Zm5-4H40V53h5Zm10,5H53.905l-.8-8H55Zm6-10H3V49H61Z"/></svg>
